<svg xmlns="http://www.w3.org/2000/svg" viewBox="0 0 390 346" width="390" height="346" role="img" aria-labelledby="t d">
<title id="t">The detection matrix: deliberate bugs versus testing techniques</title>
<desc id="d">A grid of 131 measured cells across 3 tiers, plus 154 unmeasured positions. 27 filled cells are catches; 104 hollow cells are recorded misses; faint cells are not applicable or not yet run. Full per-cell detail is in docs/detection-matrix.md.</desc>
<text x="2" y="13" font-family="ui-sans-serif, system-ui, sans-serif" font-size="10" fill="#6b7280">Tier A · in-proc</text>
<rect x="2" y="22" width="12" height="12" rx="2" fill="#3f669a"/>
<rect x="17" y="22" width="12" height="12" rx="2" fill="#3f669a"/>
<rect x="32" y="22" width="12" height="12" rx="2" fill="#3f669a"/>
<rect x="47.5" y="22.5" width="11" height="11" rx="2" fill="none" stroke="#c3c9d3"/>
<rect x="62.5" y="22.5" width="11" height="11" rx="2" fill="none" stroke="#c3c9d3"/>
<rect x="77.5" y="22.5" width="11" height="11" rx="2" fill="none" stroke="#c3c9d3"/>
<rect x="92.5" y="22.5" width="11" height="11" rx="2" fill="none" stroke="#c3c9d3"/>
<rect x="107" y="22" width="12" height="12" rx="2" fill="#eef0f4"/>
<rect x="122" y="22" width="12" height="12" rx="2" fill="#eef0f4"/>
<rect x="137" y="22" width="12" height="12" rx="2" fill="#eef0f4"/>
<rect x="2" y="37" width="12" height="12" rx="2" fill="#3f669a"/>
<rect x="17.5" y="37.5" width="11" height="11" rx="2" fill="none" stroke="#c3c9d3"/>
<rect x="32.5" y="37.5" width="11" height="11" rx="2" fill="none" stroke="#c3c9d3"/>
<rect x="47.5" y="37.5" width="11" height="11" rx="2" fill="none" stroke="#c3c9d3"/>
<rect x="62.5" y="37.5" width="11" height="11" rx="2" fill="none" stroke="#c3c9d3"/>
<rect x="77.5" y="37.5" width="11" height="11" rx="2" fill="none" stroke="#c3c9d3"/>
<rect x="92.5" y="37.5" width="11" height="11" rx="2" fill="none" stroke="#c3c9d3"/>
<rect x="107" y="37" width="12" height="12" rx="2" fill="#eef0f4"/>
<rect x="122" y="37" width="12" height="12" rx="2" fill="#eef0f4"/>
<rect x="137" y="37" width="12" height="12" rx="2" fill="#eef0f4"/>
<rect x="2.5" y="52.5" width="11" height="11" rx="2" fill="none" stroke="#c3c9d3"/>
<rect x="17" y="52" width="12" height="12" rx="2" fill="#3f669a"/>
<rect x="32.5" y="52.5" width="11" height="11" rx="2" fill="none" stroke="#c3c9d3"/>
<rect x="47.5" y="52.5" width="11" height="11" rx="2" fill="none" stroke="#c3c9d3"/>
<rect x="62.5" y="52.5" width="11" height="11" rx="2" fill="none" stroke="#c3c9d3"/>
<rect x="77.5" y="52.5" width="11" height="11" rx="2" fill="none" stroke="#c3c9d3"/>
<rect x="92.5" y="52.5" width="11" height="11" rx="2" fill="none" stroke="#c3c9d3"/>
<rect x="107" y="52" width="12" height="12" rx="2" fill="#eef0f4"/>
<rect x="122" y="52" width="12" height="12" rx="2" fill="#eef0f4"/>
<rect x="137" y="52" width="12" height="12" rx="2" fill="#eef0f4"/>
<rect x="2.5" y="67.5" width="11" height="11" rx="2" fill="none" stroke="#c3c9d3"/>
<rect x="17.5" y="67.5" width="11" height="11" rx="2" fill="none" stroke="#c3c9d3"/>
<rect x="32.5" y="67.5" width="11" height="11" rx="2" fill="none" stroke="#c3c9d3"/>
<rect x="47.5" y="67.5" width="11" height="11" rx="2" fill="none" stroke="#c3c9d3"/>
<rect x="62.5" y="67.5" width="11" height="11" rx="2" fill="none" stroke="#c3c9d3"/>
<rect x="77.5" y="67.5" width="11" height="11" rx="2" fill="none" stroke="#c3c9d3"/>
<rect x="92.5" y="67.5" width="11" height="11" rx="2" fill="none" stroke="#c3c9d3"/>
<rect x="107" y="67" width="12" height="12" rx="2" fill="#eef0f4"/>
<rect x="122" y="67" width="12" height="12" rx="2" fill="#eef0f4"/>
<rect x="137" y="67" width="12" height="12" rx="2" fill="#eef0f4"/>
<rect x="2" y="82" width="12" height="12" rx="2" fill="#eef0f4"/>
<rect x="17" y="82" width="12" height="12" rx="2" fill="#eef0f4"/>
<rect x="32" y="82" width="12" height="12" rx="2" fill="#eef0f4"/>
<rect x="47" y="82" width="12" height="12" rx="2" fill="#eef0f4"/>
<rect x="62" y="82" width="12" height="12" rx="2" fill="#eef0f4"/>
<rect x="77" y="82" width="12" height="12" rx="2" fill="#eef0f4"/>
<rect x="92" y="82" width="12" height="12" rx="2" fill="#eef0f4"/>
<rect x="107" y="82" width="12" height="12" rx="2" fill="#eef0f4"/>
<rect x="122" y="82" width="12" height="12" rx="2" fill="#eef0f4"/>
<rect x="137" y="82" width="12" height="12" rx="2" fill="#eef0f4"/>
<rect x="2.5" y="97.5" width="11" height="11" rx="2" fill="none" stroke="#c3c9d3"/>
<rect x="17" y="97" width="12" height="12" rx="2" fill="#3f669a"/>
<rect x="32.5" y="97.5" width="11" height="11" rx="2" fill="none" stroke="#c3c9d3"/>
<rect x="47" y="97" width="12" height="12" rx="2" fill="#3f669a"/>
<rect x="62.5" y="97.5" width="11" height="11" rx="2" fill="none" stroke="#c3c9d3"/>
<rect x="77.5" y="97.5" width="11" height="11" rx="2" fill="none" stroke="#c3c9d3"/>
<rect x="92.5" y="97.5" width="11" height="11" rx="2" fill="none" stroke="#c3c9d3"/>
<rect x="107" y="97" width="12" height="12" rx="2" fill="#eef0f4"/>
<rect x="122" y="97" width="12" height="12" rx="2" fill="#eef0f4"/>
<rect x="137" y="97" width="12" height="12" rx="2" fill="#eef0f4"/>
<rect x="2.5" y="112.5" width="11" height="11" rx="2" fill="none" stroke="#c3c9d3"/>
<rect x="17.5" y="112.5" width="11" height="11" rx="2" fill="none" stroke="#c3c9d3"/>
<rect x="32.5" y="112.5" width="11" height="11" rx="2" fill="none" stroke="#c3c9d3"/>
<rect x="47.5" y="112.5" width="11" height="11" rx="2" fill="none" stroke="#c3c9d3"/>
<rect x="62.5" y="112.5" width="11" height="11" rx="2" fill="none" stroke="#c3c9d3"/>
<rect x="77.5" y="112.5" width="11" height="11" rx="2" fill="none" stroke="#c3c9d3"/>
<rect x="92.5" y="112.5" width="11" height="11" rx="2" fill="none" stroke="#c3c9d3"/>
<rect x="107" y="112" width="12" height="12" rx="2" fill="#eef0f4"/>
<rect x="122" y="112" width="12" height="12" rx="2" fill="#eef0f4"/>
<rect x="137" y="112" width="12" height="12" rx="2" fill="#eef0f4"/>
<rect x="2.5" y="127.5" width="11" height="11" rx="2" fill="none" stroke="#c3c9d3"/>
<rect x="17.5" y="127.5" width="11" height="11" rx="2" fill="none" stroke="#c3c9d3"/>
<rect x="32.5" y="127.5" width="11" height="11" rx="2" fill="none" stroke="#c3c9d3"/>
<rect x="47.5" y="127.5" width="11" height="11" rx="2" fill="none" stroke="#c3c9d3"/>
<rect x="62.5" y="127.5" width="11" height="11" rx="2" fill="none" stroke="#c3c9d3"/>
<rect x="77.5" y="127.5" width="11" height="11" rx="2" fill="none" stroke="#c3c9d3"/>
<rect x="92.5" y="127.5" width="11" height="11" rx="2" fill="none" stroke="#c3c9d3"/>
<rect x="107" y="127" width="12" height="12" rx="2" fill="#eef0f4"/>
<rect x="122" y="127" width="12" height="12" rx="2" fill="#eef0f4"/>
<rect x="137" y="127" width="12" height="12" rx="2" fill="#eef0f4"/>
<rect x="2" y="142" width="12" height="12" rx="2" fill="#eef0f4"/>
<rect x="17" y="142" width="12" height="12" rx="2" fill="#eef0f4"/>
<rect x="32" y="142" width="12" height="12" rx="2" fill="#eef0f4"/>
<rect x="47" y="142" width="12" height="12" rx="2" fill="#eef0f4"/>
<rect x="62" y="142" width="12" height="12" rx="2" fill="#eef0f4"/>
<rect x="77" y="142" width="12" height="12" rx="2" fill="#eef0f4"/>
<rect x="92" y="142" width="12" height="12" rx="2" fill="#eef0f4"/>
<rect x="107" y="142" width="12" height="12" rx="2" fill="#eef0f4"/>
<rect x="122" y="142" width="12" height="12" rx="2" fill="#eef0f4"/>
<rect x="137" y="142" width="12" height="12" rx="2" fill="#eef0f4"/>
<rect x="2.5" y="157.5" width="11" height="11" rx="2" fill="none" stroke="#c3c9d3"/>
<rect x="17.5" y="157.5" width="11" height="11" rx="2" fill="none" stroke="#c3c9d3"/>
<rect x="32" y="157" width="12" height="12" rx="2" fill="#3f669a"/>
<rect x="47.5" y="157.5" width="11" height="11" rx="2" fill="none" stroke="#c3c9d3"/>
<rect x="62.5" y="157.5" width="11" height="11" rx="2" fill="none" stroke="#c3c9d3"/>
<rect x="77.5" y="157.5" width="11" height="11" rx="2" fill="none" stroke="#c3c9d3"/>
<rect x="92.5" y="157.5" width="11" height="11" rx="2" fill="none" stroke="#c3c9d3"/>
<rect x="107" y="157" width="12" height="12" rx="2" fill="#eef0f4"/>
<rect x="122" y="157" width="12" height="12" rx="2" fill="#eef0f4"/>
<rect x="137" y="157" width="12" height="12" rx="2" fill="#eef0f4"/>
<rect x="2.5" y="172.5" width="11" height="11" rx="2" fill="none" stroke="#c3c9d3"/>
<rect x="17.5" y="172.5" width="11" height="11" rx="2" fill="none" stroke="#c3c9d3"/>
<rect x="32" y="172" width="12" height="12" rx="2" fill="#3f669a"/>
<rect x="47.5" y="172.5" width="11" height="11" rx="2" fill="none" stroke="#c3c9d3"/>
<rect x="62.5" y="172.5" width="11" height="11" rx="2" fill="none" stroke="#c3c9d3"/>
<rect x="77.5" y="172.5" width="11" height="11" rx="2" fill="none" stroke="#c3c9d3"/>
<rect x="92.5" y="172.5" width="11" height="11" rx="2" fill="none" stroke="#c3c9d3"/>
<rect x="107" y="172" width="12" height="12" rx="2" fill="#eef0f4"/>
<rect x="122" y="172" width="12" height="12" rx="2" fill="#eef0f4"/>
<rect x="137" y="172" width="12" height="12" rx="2" fill="#eef0f4"/>
<rect x="2.5" y="187.5" width="11" height="11" rx="2" fill="none" stroke="#c3c9d3"/>
<rect x="17" y="187" width="12" height="12" rx="2" fill="#3f669a"/>
<rect x="32" y="187" width="12" height="12" rx="2" fill="#3f669a"/>
<rect x="47.5" y="187.5" width="11" height="11" rx="2" fill="none" stroke="#c3c9d3"/>
<rect x="62.5" y="187.5" width="11" height="11" rx="2" fill="none" stroke="#c3c9d3"/>
<rect x="77.5" y="187.5" width="11" height="11" rx="2" fill="none" stroke="#c3c9d3"/>
<rect x="92.5" y="187.5" width="11" height="11" rx="2" fill="none" stroke="#c3c9d3"/>
<rect x="107" y="187" width="12" height="12" rx="2" fill="#eef0f4"/>
<rect x="122" y="187" width="12" height="12" rx="2" fill="#eef0f4"/>
<rect x="137" y="187" width="12" height="12" rx="2" fill="#eef0f4"/>
<rect x="2.5" y="202.5" width="11" height="11" rx="2" fill="none" stroke="#c3c9d3"/>
<rect x="17.5" y="202.5" width="11" height="11" rx="2" fill="none" stroke="#c3c9d3"/>
<rect x="32" y="202" width="12" height="12" rx="2" fill="#3f669a"/>
<rect x="47.5" y="202.5" width="11" height="11" rx="2" fill="none" stroke="#c3c9d3"/>
<rect x="62.5" y="202.5" width="11" height="11" rx="2" fill="none" stroke="#c3c9d3"/>
<rect x="77.5" y="202.5" width="11" height="11" rx="2" fill="none" stroke="#c3c9d3"/>
<rect x="92.5" y="202.5" width="11" height="11" rx="2" fill="none" stroke="#c3c9d3"/>
<rect x="107" y="202" width="12" height="12" rx="2" fill="#eef0f4"/>
<rect x="122" y="202" width="12" height="12" rx="2" fill="#eef0f4"/>
<rect x="137" y="202" width="12" height="12" rx="2" fill="#eef0f4"/>
<rect x="2.5" y="217.5" width="11" height="11" rx="2" fill="none" stroke="#c3c9d3"/>
<rect x="17.5" y="217.5" width="11" height="11" rx="2" fill="none" stroke="#c3c9d3"/>
<rect x="32.5" y="217.5" width="11" height="11" rx="2" fill="none" stroke="#c3c9d3"/>
<rect x="47.5" y="217.5" width="11" height="11" rx="2" fill="none" stroke="#c3c9d3"/>
<rect x="62.5" y="217.5" width="11" height="11" rx="2" fill="none" stroke="#c3c9d3"/>
<rect x="77.5" y="217.5" width="11" height="11" rx="2" fill="none" stroke="#c3c9d3"/>
<rect x="92" y="217" width="12" height="12" rx="2" fill="#3f669a"/>
<rect x="107" y="217" width="12" height="12" rx="2" fill="#eef0f4"/>
<rect x="122" y="217" width="12" height="12" rx="2" fill="#eef0f4"/>
<rect x="137" y="217" width="12" height="12" rx="2" fill="#eef0f4"/>
<rect x="2" y="232" width="12" height="12" rx="2" fill="#eef0f4"/>
<rect x="17" y="232" width="12" height="12" rx="2" fill="#eef0f4"/>
<rect x="32" y="232" width="12" height="12" rx="2" fill="#eef0f4"/>
<rect x="47" y="232" width="12" height="12" rx="2" fill="#eef0f4"/>
<rect x="62" y="232" width="12" height="12" rx="2" fill="#eef0f4"/>
<rect x="77" y="232" width="12" height="12" rx="2" fill="#eef0f4"/>
<rect x="92" y="232" width="12" height="12" rx="2" fill="#eef0f4"/>
<rect x="107" y="232" width="12" height="12" rx="2" fill="#3f669a"/>
<rect x="122.5" y="232.5" width="11" height="11" rx="2" fill="none" stroke="#c3c9d3"/>
<rect x="137.5" y="232.5" width="11" height="11" rx="2" fill="none" stroke="#c3c9d3"/>
<rect x="2" y="247" width="12" height="12" rx="2" fill="#eef0f4"/>
<rect x="17" y="247" width="12" height="12" rx="2" fill="#eef0f4"/>
<rect x="32" y="247" width="12" height="12" rx="2" fill="#eef0f4"/>
<rect x="47" y="247" width="12" height="12" rx="2" fill="#eef0f4"/>
<rect x="62" y="247" width="12" height="12" rx="2" fill="#eef0f4"/>
<rect x="77" y="247" width="12" height="12" rx="2" fill="#eef0f4"/>
<rect x="92" y="247" width="12" height="12" rx="2" fill="#eef0f4"/>
<rect x="107" y="247" width="12" height="12" rx="2" fill="#3f669a"/>
<rect x="122.5" y="247.5" width="11" height="11" rx="2" fill="none" stroke="#c3c9d3"/>
<rect x="137.5" y="247.5" width="11" height="11" rx="2" fill="none" stroke="#c3c9d3"/>
<rect x="2" y="262" width="12" height="12" rx="2" fill="#eef0f4"/>
<rect x="17" y="262" width="12" height="12" rx="2" fill="#eef0f4"/>
<rect x="32" y="262" width="12" height="12" rx="2" fill="#eef0f4"/>
<rect x="47" y="262" width="12" height="12" rx="2" fill="#eef0f4"/>
<rect x="62" y="262" width="12" height="12" rx="2" fill="#eef0f4"/>
<rect x="77" y="262" width="12" height="12" rx="2" fill="#eef0f4"/>
<rect x="92" y="262" width="12" height="12" rx="2" fill="#eef0f4"/>
<rect x="107" y="262" width="12" height="12" rx="2" fill="#3f669a"/>
<rect x="122.5" y="262.5" width="11" height="11" rx="2" fill="none" stroke="#c3c9d3"/>
<rect x="137.5" y="262.5" width="11" height="11" rx="2" fill="none" stroke="#c3c9d3"/>
<rect x="2" y="277" width="12" height="12" rx="2" fill="#eef0f4"/>
<rect x="17" y="277" width="12" height="12" rx="2" fill="#eef0f4"/>
<rect x="32" y="277" width="12" height="12" rx="2" fill="#eef0f4"/>
<rect x="47" y="277" width="12" height="12" rx="2" fill="#eef0f4"/>
<rect x="62" y="277" width="12" height="12" rx="2" fill="#eef0f4"/>
<rect x="77" y="277" width="12" height="12" rx="2" fill="#eef0f4"/>
<rect x="92" y="277" width="12" height="12" rx="2" fill="#eef0f4"/>
<rect x="107" y="277" width="12" height="12" rx="2" fill="#3f669a"/>
<rect x="122" y="277" width="12" height="12" rx="2" fill="#3f669a"/>
<rect x="137.5" y="277.5" width="11" height="11" rx="2" fill="none" stroke="#c3c9d3"/>
<rect x="2" y="292" width="12" height="12" rx="2" fill="#eef0f4"/>
<rect x="17" y="292" width="12" height="12" rx="2" fill="#eef0f4"/>
<rect x="32" y="292" width="12" height="12" rx="2" fill="#eef0f4"/>
<rect x="47" y="292" width="12" height="12" rx="2" fill="#eef0f4"/>
<rect x="62" y="292" width="12" height="12" rx="2" fill="#eef0f4"/>
<rect x="77" y="292" width="12" height="12" rx="2" fill="#eef0f4"/>
<rect x="92" y="292" width="12" height="12" rx="2" fill="#eef0f4"/>
<rect x="107" y="292" width="12" height="12" rx="2" fill="#eef0f4"/>
<rect x="122" y="292" width="12" height="12" rx="2" fill="#eef0f4"/>
<rect x="137" y="292" width="12" height="12" rx="2" fill="#eef0f4"/>
<rect x="2" y="307" width="12" height="12" rx="2" fill="#eef0f4"/>
<rect x="17" y="307" width="12" height="12" rx="2" fill="#eef0f4"/>
<rect x="32" y="307" width="12" height="12" rx="2" fill="#eef0f4"/>
<rect x="47" y="307" width="12" height="12" rx="2" fill="#eef0f4"/>
<rect x="62" y="307" width="12" height="12" rx="2" fill="#eef0f4"/>
<rect x="77" y="307" width="12" height="12" rx="2" fill="#eef0f4"/>
<rect x="92" y="307" width="12" height="12" rx="2" fill="#eef0f4"/>
<rect x="107" y="307" width="12" height="12" rx="2" fill="#3f669a"/>
<rect x="122.5" y="307.5" width="11" height="11" rx="2" fill="none" stroke="#c3c9d3"/>
<rect x="137.5" y="307.5" width="11" height="11" rx="2" fill="none" stroke="#c3c9d3"/>
<text x="166" y="13" font-family="ui-sans-serif, system-ui, sans-serif" font-size="10" fill="#6b7280">Tier B · live cluster</text>
<rect x="166.5" y="22.5" width="11" height="11" rx="2" fill="none" stroke="#c3c9d3"/>
<rect x="181" y="22" width="12" height="12" rx="2" fill="#eef0f4"/>
<rect x="196" y="22" width="12" height="12" rx="2" fill="#eef0f4"/>
<rect x="211" y="22" width="12" height="12" rx="2" fill="#eef0f4"/>
<rect x="226" y="22" width="12" height="12" rx="2" fill="#3f669a"/>
<rect x="241" y="22" width="12" height="12" rx="2" fill="#eef0f4"/>
<rect x="256" y="22" width="12" height="12" rx="2" fill="#eef0f4"/>
<rect x="166.5" y="37.5" width="11" height="11" rx="2" fill="none" stroke="#c3c9d3"/>
<rect x="181" y="37" width="12" height="12" rx="2" fill="#eef0f4"/>
<rect x="196" y="37" width="12" height="12" rx="2" fill="#eef0f4"/>
<rect x="211" y="37" width="12" height="12" rx="2" fill="#eef0f4"/>
<rect x="226.5" y="37.5" width="11" height="11" rx="2" fill="none" stroke="#c3c9d3"/>
<rect x="241" y="37" width="12" height="12" rx="2" fill="#3f669a"/>
<rect x="256" y="37" width="12" height="12" rx="2" fill="#eef0f4"/>
<rect x="166.5" y="52.5" width="11" height="11" rx="2" fill="none" stroke="#c3c9d3"/>
<rect x="181.5" y="52.5" width="11" height="11" rx="2" fill="none" stroke="#c3c9d3"/>
<rect x="196" y="52" width="12" height="12" rx="2" fill="#eef0f4"/>
<rect x="211.5" y="52.5" width="11" height="11" rx="2" fill="none" stroke="#c3c9d3"/>
<rect x="226.5" y="52.5" width="11" height="11" rx="2" fill="none" stroke="#c3c9d3"/>
<rect x="241" y="52" width="12" height="12" rx="2" fill="#eef0f4"/>
<rect x="256" y="52" width="12" height="12" rx="2" fill="#eef0f4"/>
<rect x="166.5" y="67.5" width="11" height="11" rx="2" fill="none" stroke="#c3c9d3"/>
<rect x="181" y="67" width="12" height="12" rx="2" fill="#3f669a"/>
<rect x="196" y="67" width="12" height="12" rx="2" fill="#eef0f4"/>
<rect x="211" y="67" width="12" height="12" rx="2" fill="#eef0f4"/>
<rect x="226" y="67" width="12" height="12" rx="2" fill="#eef0f4"/>
<rect x="241" y="67" width="12" height="12" rx="2" fill="#eef0f4"/>
<rect x="256" y="67" width="12" height="12" rx="2" fill="#eef0f4"/>
<rect x="166" y="82" width="12" height="12" rx="2" fill="#eef0f4"/>
<rect x="181" y="82" width="12" height="12" rx="2" fill="#3f669a"/>
<rect x="196" y="82" width="12" height="12" rx="2" fill="#eef0f4"/>
<rect x="211" y="82" width="12" height="12" rx="2" fill="#eef0f4"/>
<rect x="226" y="82" width="12" height="12" rx="2" fill="#eef0f4"/>
<rect x="241" y="82" width="12" height="12" rx="2" fill="#eef0f4"/>
<rect x="256" y="82" width="12" height="12" rx="2" fill="#3f669a"/>
<rect x="166.5" y="97.5" width="11" height="11" rx="2" fill="none" stroke="#c3c9d3"/>
<rect x="181" y="97" width="12" height="12" rx="2" fill="#eef0f4"/>
<rect x="196.5" y="97.5" width="11" height="11" rx="2" fill="none" stroke="#c3c9d3"/>
<rect x="211" y="97" width="12" height="12" rx="2" fill="#eef0f4"/>
<rect x="226" y="97" width="12" height="12" rx="2" fill="#3f669a"/>
<rect x="241" y="97" width="12" height="12" rx="2" fill="#eef0f4"/>
<rect x="256" y="97" width="12" height="12" rx="2" fill="#eef0f4"/>
<rect x="166.5" y="112.5" width="11" height="11" rx="2" fill="none" stroke="#c3c9d3"/>
<rect x="181" y="112" width="12" height="12" rx="2" fill="#eef0f4"/>
<rect x="196" y="112" width="12" height="12" rx="2" fill="#eef0f4"/>
<rect x="211" y="112" width="12" height="12" rx="2" fill="#3f669a"/>
<rect x="226" y="112" width="12" height="12" rx="2" fill="#eef0f4"/>
<rect x="241" y="112" width="12" height="12" rx="2" fill="#eef0f4"/>
<rect x="256" y="112" width="12" height="12" rx="2" fill="#eef0f4"/>
<rect x="166.5" y="127.5" width="11" height="11" rx="2" fill="none" stroke="#c3c9d3"/>
<rect x="181" y="127" width="12" height="12" rx="2" fill="#eef0f4"/>
<rect x="196" y="127" width="12" height="12" rx="2" fill="#eef0f4"/>
<rect x="211" y="127" width="12" height="12" rx="2" fill="#3f669a"/>
<rect x="226" y="127" width="12" height="12" rx="2" fill="#eef0f4"/>
<rect x="241" y="127" width="12" height="12" rx="2" fill="#eef0f4"/>
<rect x="256" y="127" width="12" height="12" rx="2" fill="#eef0f4"/>
<rect x="166" y="142" width="12" height="12" rx="2" fill="#eef0f4"/>
<rect x="181" y="142" width="12" height="12" rx="2" fill="#eef0f4"/>
<rect x="196" y="142" width="12" height="12" rx="2" fill="#eef0f4"/>
<rect x="211" y="142" width="12" height="12" rx="2" fill="#eef0f4"/>
<rect x="226" y="142" width="12" height="12" rx="2" fill="#eef0f4"/>
<rect x="241" y="142" width="12" height="12" rx="2" fill="#eef0f4"/>
<rect x="256" y="142" width="12" height="12" rx="2" fill="#eef0f4"/>
<rect x="166.5" y="157.5" width="11" height="11" rx="2" fill="none" stroke="#c3c9d3"/>
<rect x="181" y="157" width="12" height="12" rx="2" fill="#eef0f4"/>
<rect x="196" y="157" width="12" height="12" rx="2" fill="#eef0f4"/>
<rect x="211" y="157" width="12" height="12" rx="2" fill="#eef0f4"/>
<rect x="226.5" y="157.5" width="11" height="11" rx="2" fill="none" stroke="#c3c9d3"/>
<rect x="241" y="157" width="12" height="12" rx="2" fill="#eef0f4"/>
<rect x="256" y="157" width="12" height="12" rx="2" fill="#eef0f4"/>
<text x="285" y="13" font-family="ui-sans-serif, system-ui, sans-serif" font-size="10" fill="#6b7280">Tier C · real model</text>
<rect x="285.5" y="22.5" width="11" height="11" rx="2" fill="none" stroke="#c3c9d3"/>
<rect x="300.5" y="22.5" width="11" height="11" rx="2" fill="none" stroke="#c3c9d3"/>
<rect x="315" y="22" width="12" height="12" rx="2" fill="#eef0f4"/>
<rect x="285.5" y="37.5" width="11" height="11" rx="2" fill="none" stroke="#c3c9d3"/>
<rect x="300.5" y="37.5" width="11" height="11" rx="2" fill="none" stroke="#c3c9d3"/>
<rect x="315" y="37" width="12" height="12" rx="2" fill="#eef0f4"/>
<rect x="285.5" y="52.5" width="11" height="11" rx="2" fill="none" stroke="#c3c9d3"/>
<rect x="300.5" y="52.5" width="11" height="11" rx="2" fill="none" stroke="#c3c9d3"/>
<rect x="315" y="52" width="12" height="12" rx="2" fill="#eef0f4"/>
<rect x="285.5" y="67.5" width="11" height="11" rx="2" fill="none" stroke="#c3c9d3"/>
<rect x="300.5" y="67.5" width="11" height="11" rx="2" fill="none" stroke="#c3c9d3"/>
<rect x="315" y="67" width="12" height="12" rx="2" fill="#eef0f4"/>
<rect x="285.5" y="82.5" width="11" height="11" rx="2" fill="none" stroke="#c3c9d3"/>
<rect x="300.5" y="82.5" width="11" height="11" rx="2" fill="none" stroke="#c3c9d3"/>
<rect x="315" y="82" width="12" height="12" rx="2" fill="#eef0f4"/>
<rect x="2" y="312" width="12" height="12" rx="2" fill="#3f669a"/>
<text x="19" y="321" font-family="ui-sans-serif, system-ui, sans-serif" font-size="10" fill="#6b7280">caught (27)</text>
<rect x="88" y="312" width="11" height="11" rx="2" fill="none" stroke="#c3c9d3"/>
<text x="105" y="321" font-family="ui-sans-serif, system-ui, sans-serif" font-size="10" fill="#6b7280">missed (104)</text>
<rect x="176" y="312" width="12" height="12" rx="2" fill="#eef0f4"/>
<text x="193" y="321" font-family="ui-sans-serif, system-ui, sans-serif" font-size="10" fill="#6b7280">not run or n/a (154)</text>
</svg>
