<svg xmlns="http://www.w3.org/2000/svg" viewBox="0 0 526 406" width="526" height="406" role="img" aria-labelledby="t d">
<title id="t">The detection matrix: every deliberate bug versus the techniques that defend it</title>
<desc id="d">Coverage strip: 22 of 24 deliberate bugs caught (2 awaiting a deeper lane, 0 open gaps). In the grid, strong cells are catches; soft-tinted cells are off-boundary — a specialized technique correctly staying green on a bug it does not defend; red is an open gap (none today); faint cells are not applicable or not yet run. Full per-cell detail is in docs/detection-matrix.md.</desc>
<text x="2" y="13" font-family="ui-sans-serif, system-ui, sans-serif" font-size="10" fill="#9aa0aa">coverage</text>
<rect x="2" y="22" width="12" height="12" rx="2" fill="#8fb0dc"/>
<rect x="2" y="37" width="12" height="12" rx="2" fill="#8fb0dc"/>
<rect x="2" y="52" width="12" height="12" rx="2" fill="#8fb0dc"/>
<rect x="2" y="67" width="12" height="12" rx="2" fill="#5f7ba6"/>
<rect x="2" y="82" width="12" height="12" rx="2" fill="#8fb0dc"/>
<rect x="2" y="97" width="12" height="12" rx="2" fill="#8fb0dc"/>
<rect x="2" y="112" width="12" height="12" rx="2" fill="#5f7ba6"/>
<rect x="2" y="127" width="12" height="12" rx="2" fill="#8fb0dc"/>
<rect x="2" y="142" width="12" height="12" rx="2" fill="#5f7ba6"/>
<rect x="2" y="157" width="12" height="12" rx="2" fill="#5f7ba6"/>
<rect x="2" y="172" width="12" height="12" rx="2" fill="#caa45f"/>
<rect x="2" y="187" width="12" height="12" rx="2" fill="#caa45f"/>
<rect x="2" y="202" width="12" height="12" rx="2" fill="#8fb0dc"/>
<rect x="2" y="217" width="12" height="12" rx="2" fill="#8fb0dc"/>
<rect x="2" y="232" width="12" height="12" rx="2" fill="#8fb0dc"/>
<rect x="2" y="247" width="12" height="12" rx="2" fill="#8fb0dc"/>
<rect x="2" y="262" width="12" height="12" rx="2" fill="#8fb0dc"/>
<rect x="2" y="277" width="12" height="12" rx="2" fill="#8fb0dc"/>
<rect x="2" y="292" width="12" height="12" rx="2" fill="#8fb0dc"/>
<rect x="2" y="307" width="12" height="12" rx="2" fill="#8fb0dc"/>
<rect x="2" y="322" width="12" height="12" rx="2" fill="#8fb0dc"/>
<rect x="2" y="337" width="12" height="12" rx="2" fill="#8fb0dc"/>
<rect x="2" y="352" width="12" height="12" rx="2" fill="#8fb0dc"/>
<rect x="2" y="367" width="12" height="12" rx="2" fill="#8fb0dc"/>
<rect x="63" y="22" width="12" height="12" rx="2" fill="#8fb0dc"/>
<rect x="78" y="22" width="12" height="12" rx="2" fill="#8fb0dc"/>
<rect x="93" y="22" width="12" height="12" rx="2" fill="#8fb0dc"/>
<rect x="108" y="22" width="12" height="12" rx="2" fill="#2c333d"/>
<rect x="123" y="22" width="12" height="12" rx="2" fill="#2c333d"/>
<rect x="138" y="22" width="12" height="12" rx="2" fill="#2c333d"/>
<rect x="153" y="22" width="12" height="12" rx="2" fill="#2c333d"/>
<rect x="168" y="22" width="12" height="12" rx="2" fill="#1e2126"/>
<rect x="183" y="22" width="12" height="12" rx="2" fill="#1e2126"/>
<rect x="198" y="22" width="12" height="12" rx="2" fill="#1e2126"/>
<rect x="63" y="37" width="12" height="12" rx="2" fill="#8fb0dc"/>
<rect x="78" y="37" width="12" height="12" rx="2" fill="#2c333d"/>
<rect x="93" y="37" width="12" height="12" rx="2" fill="#2c333d"/>
<rect x="108" y="37" width="12" height="12" rx="2" fill="#2c333d"/>
<rect x="123" y="37" width="12" height="12" rx="2" fill="#2c333d"/>
<rect x="138" y="37" width="12" height="12" rx="2" fill="#2c333d"/>
<rect x="153" y="37" width="12" height="12" rx="2" fill="#2c333d"/>
<rect x="168" y="37" width="12" height="12" rx="2" fill="#1e2126"/>
<rect x="183" y="37" width="12" height="12" rx="2" fill="#1e2126"/>
<rect x="198" y="37" width="12" height="12" rx="2" fill="#1e2126"/>
<rect x="63" y="52" width="12" height="12" rx="2" fill="#2c333d"/>
<rect x="78" y="52" width="12" height="12" rx="2" fill="#8fb0dc"/>
<rect x="93" y="52" width="12" height="12" rx="2" fill="#2c333d"/>
<rect x="108" y="52" width="12" height="12" rx="2" fill="#2c333d"/>
<rect x="123" y="52" width="12" height="12" rx="2" fill="#2c333d"/>
<rect x="138" y="52" width="12" height="12" rx="2" fill="#2c333d"/>
<rect x="153" y="52" width="12" height="12" rx="2" fill="#2c333d"/>
<rect x="168" y="52" width="12" height="12" rx="2" fill="#1e2126"/>
<rect x="183" y="52" width="12" height="12" rx="2" fill="#1e2126"/>
<rect x="198" y="52" width="12" height="12" rx="2" fill="#1e2126"/>
<rect x="63" y="67" width="12" height="12" rx="2" fill="#2c333d"/>
<rect x="78" y="67" width="12" height="12" rx="2" fill="#2c333d"/>
<rect x="93" y="67" width="12" height="12" rx="2" fill="#2c333d"/>
<rect x="108" y="67" width="12" height="12" rx="2" fill="#2c333d"/>
<rect x="123" y="67" width="12" height="12" rx="2" fill="#2c333d"/>
<rect x="138" y="67" width="12" height="12" rx="2" fill="#2c333d"/>
<rect x="153" y="67" width="12" height="12" rx="2" fill="#2c333d"/>
<rect x="168" y="67" width="12" height="12" rx="2" fill="#1e2126"/>
<rect x="183" y="67" width="12" height="12" rx="2" fill="#1e2126"/>
<rect x="198" y="67" width="12" height="12" rx="2" fill="#1e2126"/>
<rect x="63" y="82" width="12" height="12" rx="2" fill="#8fb0dc"/>
<rect x="78" y="82" width="12" height="12" rx="2" fill="#8fb0dc"/>
<rect x="93" y="82" width="12" height="12" rx="2" fill="#8fb0dc"/>
<rect x="108" y="82" width="12" height="12" rx="2" fill="#2c333d"/>
<rect x="123" y="82" width="12" height="12" rx="2" fill="#2c333d"/>
<rect x="138" y="82" width="12" height="12" rx="2" fill="#2c333d"/>
<rect x="153" y="82" width="12" height="12" rx="2" fill="#2c333d"/>
<rect x="168" y="82" width="12" height="12" rx="2" fill="#1e2126"/>
<rect x="183" y="82" width="12" height="12" rx="2" fill="#1e2126"/>
<rect x="198" y="82" width="12" height="12" rx="2" fill="#1e2126"/>
<rect x="63" y="97" width="12" height="12" rx="2" fill="#2c333d"/>
<rect x="78" y="97" width="12" height="12" rx="2" fill="#2c333d"/>
<rect x="93" y="97" width="12" height="12" rx="2" fill="#8fb0dc"/>
<rect x="108" y="97" width="12" height="12" rx="2" fill="#2c333d"/>
<rect x="123" y="97" width="12" height="12" rx="2" fill="#2c333d"/>
<rect x="138" y="97" width="12" height="12" rx="2" fill="#2c333d"/>
<rect x="153" y="97" width="12" height="12" rx="2" fill="#2c333d"/>
<rect x="168" y="97" width="12" height="12" rx="2" fill="#1e2126"/>
<rect x="183" y="97" width="12" height="12" rx="2" fill="#1e2126"/>
<rect x="198" y="97" width="12" height="12" rx="2" fill="#1e2126"/>
<rect x="63" y="112" width="12" height="12" rx="2" fill="#8fb0dc"/>
<rect x="78" y="112" width="12" height="12" rx="2" fill="#8fb0dc"/>
<rect x="93" y="112" width="12" height="12" rx="2" fill="#2c333d"/>
<rect x="108" y="112" width="12" height="12" rx="2" fill="#8fb0dc"/>
<rect x="123" y="112" width="12" height="12" rx="2" fill="#2c333d"/>
<rect x="138" y="112" width="12" height="12" rx="2" fill="#2c333d"/>
<rect x="153" y="112" width="12" height="12" rx="2" fill="#2c333d"/>
<rect x="168" y="112" width="12" height="12" rx="2" fill="#1e2126"/>
<rect x="183" y="112" width="12" height="12" rx="2" fill="#1e2126"/>
<rect x="198" y="112" width="12" height="12" rx="2" fill="#1e2126"/>
<rect x="63" y="127" width="12" height="12" rx="2" fill="#2c333d"/>
<rect x="78" y="127" width="12" height="12" rx="2" fill="#2c333d"/>
<rect x="93" y="127" width="12" height="12" rx="2" fill="#2c333d"/>
<rect x="108" y="127" width="12" height="12" rx="2" fill="#2c333d"/>
<rect x="123" y="127" width="12" height="12" rx="2" fill="#2c333d"/>
<rect x="138" y="127" width="12" height="12" rx="2" fill="#2c333d"/>
<rect x="153" y="127" width="12" height="12" rx="2" fill="#2c333d"/>
<rect x="168" y="127" width="12" height="12" rx="2" fill="#1e2126"/>
<rect x="183" y="127" width="12" height="12" rx="2" fill="#1e2126"/>
<rect x="198" y="127" width="12" height="12" rx="2" fill="#1e2126"/>
<rect x="63" y="142" width="12" height="12" rx="2" fill="#2c333d"/>
<rect x="78" y="142" width="12" height="12" rx="2" fill="#2c333d"/>
<rect x="93" y="142" width="12" height="12" rx="2" fill="#2c333d"/>
<rect x="108" y="142" width="12" height="12" rx="2" fill="#2c333d"/>
<rect x="123" y="142" width="12" height="12" rx="2" fill="#2c333d"/>
<rect x="138" y="142" width="12" height="12" rx="2" fill="#2c333d"/>
<rect x="153" y="142" width="12" height="12" rx="2" fill="#2c333d"/>
<rect x="168" y="142" width="12" height="12" rx="2" fill="#1e2126"/>
<rect x="183" y="142" width="12" height="12" rx="2" fill="#1e2126"/>
<rect x="198" y="142" width="12" height="12" rx="2" fill="#1e2126"/>
<rect x="63" y="157" width="12" height="12" rx="2" fill="#2c333d"/>
<rect x="78" y="157" width="12" height="12" rx="2" fill="#2c333d"/>
<rect x="93" y="157" width="12" height="12" rx="2" fill="#2c333d"/>
<rect x="108" y="157" width="12" height="12" rx="2" fill="#2c333d"/>
<rect x="123" y="157" width="12" height="12" rx="2" fill="#2c333d"/>
<rect x="138" y="157" width="12" height="12" rx="2" fill="#2c333d"/>
<rect x="153" y="157" width="12" height="12" rx="2" fill="#2c333d"/>
<rect x="168" y="157" width="12" height="12" rx="2" fill="#1e2126"/>
<rect x="183" y="157" width="12" height="12" rx="2" fill="#1e2126"/>
<rect x="198" y="157" width="12" height="12" rx="2" fill="#1e2126"/>
<rect x="63" y="172" width="12" height="12" rx="2" fill="#1e2126"/>
<rect x="78" y="172" width="12" height="12" rx="2" fill="#1e2126"/>
<rect x="93" y="172" width="12" height="12" rx="2" fill="#1e2126"/>
<rect x="108" y="172" width="12" height="12" rx="2" fill="#1e2126"/>
<rect x="123" y="172" width="12" height="12" rx="2" fill="#1e2126"/>
<rect x="138" y="172" width="12" height="12" rx="2" fill="#1e2126"/>
<rect x="153" y="172" width="12" height="12" rx="2" fill="#1e2126"/>
<rect x="168" y="172" width="12" height="12" rx="2" fill="#1e2126"/>
<rect x="183" y="172" width="12" height="12" rx="2" fill="#1e2126"/>
<rect x="198" y="172" width="12" height="12" rx="2" fill="#1e2126"/>
<rect x="63" y="187" width="12" height="12" rx="2" fill="#2c333d"/>
<rect x="78" y="187" width="12" height="12" rx="2" fill="#2c333d"/>
<rect x="93" y="187" width="12" height="12" rx="2" fill="#8fb0dc"/>
<rect x="108" y="187" width="12" height="12" rx="2" fill="#2c333d"/>
<rect x="123" y="187" width="12" height="12" rx="2" fill="#2c333d"/>
<rect x="138" y="187" width="12" height="12" rx="2" fill="#2c333d"/>
<rect x="153" y="187" width="12" height="12" rx="2" fill="#2c333d"/>
<rect x="168" y="187" width="12" height="12" rx="2" fill="#1e2126"/>
<rect x="183" y="187" width="12" height="12" rx="2" fill="#1e2126"/>
<rect x="198" y="187" width="12" height="12" rx="2" fill="#1e2126"/>
<rect x="63" y="202" width="12" height="12" rx="2" fill="#2c333d"/>
<rect x="78" y="202" width="12" height="12" rx="2" fill="#2c333d"/>
<rect x="93" y="202" width="12" height="12" rx="2" fill="#8fb0dc"/>
<rect x="108" y="202" width="12" height="12" rx="2" fill="#2c333d"/>
<rect x="123" y="202" width="12" height="12" rx="2" fill="#2c333d"/>
<rect x="138" y="202" width="12" height="12" rx="2" fill="#2c333d"/>
<rect x="153" y="202" width="12" height="12" rx="2" fill="#2c333d"/>
<rect x="168" y="202" width="12" height="12" rx="2" fill="#1e2126"/>
<rect x="183" y="202" width="12" height="12" rx="2" fill="#1e2126"/>
<rect x="198" y="202" width="12" height="12" rx="2" fill="#1e2126"/>
<rect x="63" y="217" width="12" height="12" rx="2" fill="#2c333d"/>
<rect x="78" y="217" width="12" height="12" rx="2" fill="#8fb0dc"/>
<rect x="93" y="217" width="12" height="12" rx="2" fill="#8fb0dc"/>
<rect x="108" y="217" width="12" height="12" rx="2" fill="#2c333d"/>
<rect x="123" y="217" width="12" height="12" rx="2" fill="#2c333d"/>
<rect x="138" y="217" width="12" height="12" rx="2" fill="#2c333d"/>
<rect x="153" y="217" width="12" height="12" rx="2" fill="#2c333d"/>
<rect x="168" y="217" width="12" height="12" rx="2" fill="#1e2126"/>
<rect x="183" y="217" width="12" height="12" rx="2" fill="#1e2126"/>
<rect x="198" y="217" width="12" height="12" rx="2" fill="#1e2126"/>
<rect x="63" y="232" width="12" height="12" rx="2" fill="#2c333d"/>
<rect x="78" y="232" width="12" height="12" rx="2" fill="#2c333d"/>
<rect x="93" y="232" width="12" height="12" rx="2" fill="#8fb0dc"/>
<rect x="108" y="232" width="12" height="12" rx="2" fill="#2c333d"/>
<rect x="123" y="232" width="12" height="12" rx="2" fill="#2c333d"/>
<rect x="138" y="232" width="12" height="12" rx="2" fill="#2c333d"/>
<rect x="153" y="232" width="12" height="12" rx="2" fill="#2c333d"/>
<rect x="168" y="232" width="12" height="12" rx="2" fill="#1e2126"/>
<rect x="183" y="232" width="12" height="12" rx="2" fill="#1e2126"/>
<rect x="198" y="232" width="12" height="12" rx="2" fill="#1e2126"/>
<rect x="63" y="247" width="12" height="12" rx="2" fill="#2c333d"/>
<rect x="78" y="247" width="12" height="12" rx="2" fill="#2c333d"/>
<rect x="93" y="247" width="12" height="12" rx="2" fill="#2c333d"/>
<rect x="108" y="247" width="12" height="12" rx="2" fill="#2c333d"/>
<rect x="123" y="247" width="12" height="12" rx="2" fill="#2c333d"/>
<rect x="138" y="247" width="12" height="12" rx="2" fill="#2c333d"/>
<rect x="153" y="247" width="12" height="12" rx="2" fill="#8fb0dc"/>
<rect x="168" y="247" width="12" height="12" rx="2" fill="#1e2126"/>
<rect x="183" y="247" width="12" height="12" rx="2" fill="#1e2126"/>
<rect x="198" y="247" width="12" height="12" rx="2" fill="#1e2126"/>
<rect x="63" y="262" width="12" height="12" rx="2" fill="#1e2126"/>
<rect x="78" y="262" width="12" height="12" rx="2" fill="#1e2126"/>
<rect x="93" y="262" width="12" height="12" rx="2" fill="#1e2126"/>
<rect x="108" y="262" width="12" height="12" rx="2" fill="#1e2126"/>
<rect x="123" y="262" width="12" height="12" rx="2" fill="#1e2126"/>
<rect x="138" y="262" width="12" height="12" rx="2" fill="#1e2126"/>
<rect x="153" y="262" width="12" height="12" rx="2" fill="#1e2126"/>
<rect x="168" y="262" width="12" height="12" rx="2" fill="#8fb0dc"/>
<rect x="183" y="262" width="12" height="12" rx="2" fill="#2c333d"/>
<rect x="198" y="262" width="12" height="12" rx="2" fill="#2c333d"/>
<rect x="63" y="277" width="12" height="12" rx="2" fill="#1e2126"/>
<rect x="78" y="277" width="12" height="12" rx="2" fill="#1e2126"/>
<rect x="93" y="277" width="12" height="12" rx="2" fill="#1e2126"/>
<rect x="108" y="277" width="12" height="12" rx="2" fill="#1e2126"/>
<rect x="123" y="277" width="12" height="12" rx="2" fill="#1e2126"/>
<rect x="138" y="277" width="12" height="12" rx="2" fill="#1e2126"/>
<rect x="153" y="277" width="12" height="12" rx="2" fill="#1e2126"/>
<rect x="168" y="277" width="12" height="12" rx="2" fill="#8fb0dc"/>
<rect x="183" y="277" width="12" height="12" rx="2" fill="#2c333d"/>
<rect x="198" y="277" width="12" height="12" rx="2" fill="#2c333d"/>
<rect x="63" y="292" width="12" height="12" rx="2" fill="#1e2126"/>
<rect x="78" y="292" width="12" height="12" rx="2" fill="#1e2126"/>
<rect x="93" y="292" width="12" height="12" rx="2" fill="#1e2126"/>
<rect x="108" y="292" width="12" height="12" rx="2" fill="#1e2126"/>
<rect x="123" y="292" width="12" height="12" rx="2" fill="#1e2126"/>
<rect x="138" y="292" width="12" height="12" rx="2" fill="#1e2126"/>
<rect x="153" y="292" width="12" height="12" rx="2" fill="#1e2126"/>
<rect x="168" y="292" width="12" height="12" rx="2" fill="#8fb0dc"/>
<rect x="183" y="292" width="12" height="12" rx="2" fill="#2c333d"/>
<rect x="198" y="292" width="12" height="12" rx="2" fill="#2c333d"/>
<rect x="63" y="307" width="12" height="12" rx="2" fill="#1e2126"/>
<rect x="78" y="307" width="12" height="12" rx="2" fill="#1e2126"/>
<rect x="93" y="307" width="12" height="12" rx="2" fill="#1e2126"/>
<rect x="108" y="307" width="12" height="12" rx="2" fill="#1e2126"/>
<rect x="123" y="307" width="12" height="12" rx="2" fill="#1e2126"/>
<rect x="138" y="307" width="12" height="12" rx="2" fill="#1e2126"/>
<rect x="153" y="307" width="12" height="12" rx="2" fill="#1e2126"/>
<rect x="168" y="307" width="12" height="12" rx="2" fill="#8fb0dc"/>
<rect x="183" y="307" width="12" height="12" rx="2" fill="#2c333d"/>
<rect x="198" y="307" width="12" height="12" rx="2" fill="#2c333d"/>
<rect x="63" y="322" width="12" height="12" rx="2" fill="#1e2126"/>
<rect x="78" y="322" width="12" height="12" rx="2" fill="#1e2126"/>
<rect x="93" y="322" width="12" height="12" rx="2" fill="#1e2126"/>
<rect x="108" y="322" width="12" height="12" rx="2" fill="#1e2126"/>
<rect x="123" y="322" width="12" height="12" rx="2" fill="#1e2126"/>
<rect x="138" y="322" width="12" height="12" rx="2" fill="#1e2126"/>
<rect x="153" y="322" width="12" height="12" rx="2" fill="#1e2126"/>
<rect x="168" y="322" width="12" height="12" rx="2" fill="#8fb0dc"/>
<rect x="183" y="322" width="12" height="12" rx="2" fill="#8fb0dc"/>
<rect x="198" y="322" width="12" height="12" rx="2" fill="#2c333d"/>
<rect x="63" y="337" width="12" height="12" rx="2" fill="#1e2126"/>
<rect x="78" y="337" width="12" height="12" rx="2" fill="#1e2126"/>
<rect x="93" y="337" width="12" height="12" rx="2" fill="#1e2126"/>
<rect x="108" y="337" width="12" height="12" rx="2" fill="#1e2126"/>
<rect x="123" y="337" width="12" height="12" rx="2" fill="#1e2126"/>
<rect x="138" y="337" width="12" height="12" rx="2" fill="#1e2126"/>
<rect x="153" y="337" width="12" height="12" rx="2" fill="#1e2126"/>
<rect x="168" y="337" width="12" height="12" rx="2" fill="#8fb0dc"/>
<rect x="183" y="337" width="12" height="12" rx="2" fill="#2c333d"/>
<rect x="198" y="337" width="12" height="12" rx="2" fill="#2c333d"/>
<rect x="63" y="352" width="12" height="12" rx="2" fill="#1e2126"/>
<rect x="78" y="352" width="12" height="12" rx="2" fill="#1e2126"/>
<rect x="93" y="352" width="12" height="12" rx="2" fill="#1e2126"/>
<rect x="108" y="352" width="12" height="12" rx="2" fill="#1e2126"/>
<rect x="123" y="352" width="12" height="12" rx="2" fill="#1e2126"/>
<rect x="138" y="352" width="12" height="12" rx="2" fill="#1e2126"/>
<rect x="153" y="352" width="12" height="12" rx="2" fill="#1e2126"/>
<rect x="168" y="352" width="12" height="12" rx="2" fill="#8fb0dc"/>
<rect x="183" y="352" width="12" height="12" rx="2" fill="#2c333d"/>
<rect x="198" y="352" width="12" height="12" rx="2" fill="#2c333d"/>
<text x="63" y="13" font-family="ui-sans-serif, system-ui, sans-serif" font-size="10" fill="#9aa0aa">Tier A · in-proc</text>
<rect x="227" y="22" width="12" height="12" rx="2" fill="#2c333d"/>
<rect x="242" y="22" width="12" height="12" rx="2" fill="#1e2126"/>
<rect x="257" y="22" width="12" height="12" rx="2" fill="#1e2126"/>
<rect x="272" y="22" width="12" height="12" rx="2" fill="#1e2126"/>
<rect x="287" y="22" width="12" height="12" rx="2" fill="#8fb0dc"/>
<rect x="302" y="22" width="12" height="12" rx="2" fill="#1e2126"/>
<rect x="317" y="22" width="12" height="12" rx="2" fill="#1e2126"/>
<rect x="227" y="37" width="12" height="12" rx="2" fill="#2c333d"/>
<rect x="242" y="37" width="12" height="12" rx="2" fill="#1e2126"/>
<rect x="257" y="37" width="12" height="12" rx="2" fill="#1e2126"/>
<rect x="272" y="37" width="12" height="12" rx="2" fill="#1e2126"/>
<rect x="287" y="37" width="12" height="12" rx="2" fill="#2c333d"/>
<rect x="302" y="37" width="12" height="12" rx="2" fill="#8fb0dc"/>
<rect x="317" y="37" width="12" height="12" rx="2" fill="#1e2126"/>
<rect x="227" y="52" width="12" height="12" rx="2" fill="#2c333d"/>
<rect x="242" y="52" width="12" height="12" rx="2" fill="#2c333d"/>
<rect x="257" y="52" width="12" height="12" rx="2" fill="#1e2126"/>
<rect x="272" y="52" width="12" height="12" rx="2" fill="#2c333d"/>
<rect x="287" y="52" width="12" height="12" rx="2" fill="#2c333d"/>
<rect x="302" y="52" width="12" height="12" rx="2" fill="#1e2126"/>
<rect x="317" y="52" width="12" height="12" rx="2" fill="#1e2126"/>
<rect x="227" y="67" width="12" height="12" rx="2" fill="#2c333d"/>
<rect x="242" y="67" width="12" height="12" rx="2" fill="#8fb0dc"/>
<rect x="257" y="67" width="12" height="12" rx="2" fill="#1e2126"/>
<rect x="272" y="67" width="12" height="12" rx="2" fill="#1e2126"/>
<rect x="287" y="67" width="12" height="12" rx="2" fill="#1e2126"/>
<rect x="302" y="67" width="12" height="12" rx="2" fill="#1e2126"/>
<rect x="317" y="67" width="12" height="12" rx="2" fill="#1e2126"/>
<rect x="227" y="82" width="12" height="12" rx="2" fill="#1e2126"/>
<rect x="242" y="82" width="12" height="12" rx="2" fill="#8fb0dc"/>
<rect x="257" y="82" width="12" height="12" rx="2" fill="#1e2126"/>
<rect x="272" y="82" width="12" height="12" rx="2" fill="#1e2126"/>
<rect x="287" y="82" width="12" height="12" rx="2" fill="#1e2126"/>
<rect x="302" y="82" width="12" height="12" rx="2" fill="#1e2126"/>
<rect x="317" y="82" width="12" height="12" rx="2" fill="#8fb0dc"/>
<rect x="227" y="97" width="12" height="12" rx="2" fill="#2c333d"/>
<rect x="242" y="97" width="12" height="12" rx="2" fill="#1e2126"/>
<rect x="257" y="97" width="12" height="12" rx="2" fill="#2c333d"/>
<rect x="272" y="97" width="12" height="12" rx="2" fill="#1e2126"/>
<rect x="287" y="97" width="12" height="12" rx="2" fill="#8fb0dc"/>
<rect x="302" y="97" width="12" height="12" rx="2" fill="#1e2126"/>
<rect x="317" y="97" width="12" height="12" rx="2" fill="#1e2126"/>
<rect x="227" y="112" width="12" height="12" rx="2" fill="#2c333d"/>
<rect x="242" y="112" width="12" height="12" rx="2" fill="#1e2126"/>
<rect x="257" y="112" width="12" height="12" rx="2" fill="#1e2126"/>
<rect x="272" y="112" width="12" height="12" rx="2" fill="#8fb0dc"/>
<rect x="287" y="112" width="12" height="12" rx="2" fill="#1e2126"/>
<rect x="302" y="112" width="12" height="12" rx="2" fill="#1e2126"/>
<rect x="317" y="112" width="12" height="12" rx="2" fill="#1e2126"/>
<rect x="227" y="127" width="12" height="12" rx="2" fill="#2c333d"/>
<rect x="242" y="127" width="12" height="12" rx="2" fill="#1e2126"/>
<rect x="257" y="127" width="12" height="12" rx="2" fill="#1e2126"/>
<rect x="272" y="127" width="12" height="12" rx="2" fill="#8fb0dc"/>
<rect x="287" y="127" width="12" height="12" rx="2" fill="#1e2126"/>
<rect x="302" y="127" width="12" height="12" rx="2" fill="#1e2126"/>
<rect x="317" y="127" width="12" height="12" rx="2" fill="#1e2126"/>
<rect x="227" y="142" width="12" height="12" rx="2" fill="#1e2126"/>
<rect x="242" y="142" width="12" height="12" rx="2" fill="#1e2126"/>
<rect x="257" y="142" width="12" height="12" rx="2" fill="#1e2126"/>
<rect x="272" y="142" width="12" height="12" rx="2" fill="#1e2126"/>
<rect x="287" y="142" width="12" height="12" rx="2" fill="#1e2126"/>
<rect x="302" y="142" width="12" height="12" rx="2" fill="#1e2126"/>
<rect x="317" y="142" width="12" height="12" rx="2" fill="#1e2126"/>
<rect x="227" y="157" width="12" height="12" rx="2" fill="#1e2126"/>
<rect x="242" y="157" width="12" height="12" rx="2" fill="#1e2126"/>
<rect x="257" y="157" width="12" height="12" rx="2" fill="#1e2126"/>
<rect x="272" y="157" width="12" height="12" rx="2" fill="#1e2126"/>
<rect x="287" y="157" width="12" height="12" rx="2" fill="#1e2126"/>
<rect x="302" y="157" width="12" height="12" rx="2" fill="#1e2126"/>
<rect x="317" y="157" width="12" height="12" rx="2" fill="#1e2126"/>
<rect x="227" y="172" width="12" height="12" rx="2" fill="#2c333d"/>
<rect x="242" y="172" width="12" height="12" rx="2" fill="#1e2126"/>
<rect x="257" y="172" width="12" height="12" rx="2" fill="#1e2126"/>
<rect x="272" y="172" width="12" height="12" rx="2" fill="#1e2126"/>
<rect x="287" y="172" width="12" height="12" rx="2" fill="#2c333d"/>
<rect x="302" y="172" width="12" height="12" rx="2" fill="#1e2126"/>
<rect x="317" y="172" width="12" height="12" rx="2" fill="#1e2126"/>
<text x="227" y="13" font-family="ui-sans-serif, system-ui, sans-serif" font-size="10" fill="#9aa0aa">Tier B · live cluster</text>
<rect x="346" y="22" width="12" height="12" rx="2" fill="#2c333d"/>
<rect x="361" y="22" width="12" height="12" rx="2" fill="#2c333d"/>
<rect x="376" y="22" width="12" height="12" rx="2" fill="#1e2126"/>
<rect x="346" y="37" width="12" height="12" rx="2" fill="#1e2126"/>
<rect x="361" y="37" width="12" height="12" rx="2" fill="#1e2126"/>
<rect x="376" y="37" width="12" height="12" rx="2" fill="#1e2126"/>
<rect x="346" y="52" width="12" height="12" rx="2" fill="#2c333d"/>
<rect x="361" y="52" width="12" height="12" rx="2" fill="#2c333d"/>
<rect x="376" y="52" width="12" height="12" rx="2" fill="#1e2126"/>
<rect x="346" y="67" width="12" height="12" rx="2" fill="#2c333d"/>
<rect x="361" y="67" width="12" height="12" rx="2" fill="#2c333d"/>
<rect x="376" y="67" width="12" height="12" rx="2" fill="#1e2126"/>
<rect x="346" y="82" width="12" height="12" rx="2" fill="#2c333d"/>
<rect x="361" y="82" width="12" height="12" rx="2" fill="#2c333d"/>
<rect x="376" y="82" width="12" height="12" rx="2" fill="#1e2126"/>
<rect x="346" y="97" width="12" height="12" rx="2" fill="#2c333d"/>
<rect x="361" y="97" width="12" height="12" rx="2" fill="#2c333d"/>
<rect x="376" y="97" width="12" height="12" rx="2" fill="#1e2126"/>
<text x="346" y="13" font-family="ui-sans-serif, system-ui, sans-serif" font-size="10" fill="#9aa0aa">Tier C · real model</text>
<rect x="2" y="372" width="12" height="12" rx="2" fill="#8fb0dc"/>
<text x="19" y="381" font-family="ui-sans-serif, system-ui, sans-serif" font-size="10" fill="#9aa0aa">caught (34)</text>
<rect x="95" y="372" width="12" height="12" rx="2" fill="#2c333d"/>
<text x="112" y="381" font-family="ui-sans-serif, system-ui, sans-serif" font-size="10" fill="#9aa0aa">off-boundary, ran green (124)</text>
<rect x="285" y="372" width="12" height="12" rx="2" fill="#e06c5b"/>
<text x="302" y="381" font-family="ui-sans-serif, system-ui, sans-serif" font-size="10" fill="#9aa0aa">open gap (0)</text>
<rect x="383" y="372" width="12" height="12" rx="2" fill="#1e2126"/>
<text x="400" y="381" font-family="ui-sans-serif, system-ui, sans-serif" font-size="10" fill="#9aa0aa">n/a or not run (167)</text>
</svg>
